<svg version="1.1" xmlns="http://www.w3.org/2000/svg"
  xmlns:xlink="http://www.w3.org/1999/xlink" x="0px" y="0px" width="3064px" height="306.213px"
  viewBox="30.382 0 2064 206.213" enable-background="new 30.382 0 2064 206.213" xml:space="preserve">
  <g>
     <rect x="1889.483" y="-0.393" fill="none" width="206.606" height="206.606"></rect>
     <g>
        <g>
           <path fill="#D85D17" d="M2045.666,113.897c0.002-0.166,1.615-0.605,1.605-0.777c-0.027-0.381-0.199-1.174-0.313-1.563 c-0.025-0.1-1.354,0.959-1.387,0.859c-0.041-0.119,1.316-0.99,1.268-1.105c-0.133-0.322-0.525-0.961-0.729-1.273 c-0.033-0.047-1.057,1.188-1.086,1.141c-0.072-0.102,1.066-1.172,0.99-1.27c-0.225-0.285-0.717-0.799-1.006-1.064 c-0.066-0.061-0.486,0.988-0.561,0.93c-0.088-0.074,0.504-0.947,0.408-1.021c-0.367-0.281-1.189-0.801-1.652-1.043 c-0.111-0.059-0.02,1.232-0.135,1.189c-0.068-0.027,0.043-1.189-0.025-1.209c-0.363-0.119-1.01-0.262-1.465-0.164 c-0.107,0.023,0.164,0.908,0.059,0.916c-0.072,0.006-0.207-0.922-0.275-0.914c-0.328,0.043-0.834,0.133-1.139,0.311 c-0.037,0.021,0.188,1.059,0.145,1.07c-0.084,0.033-0.234-1.051-0.314-1.018c-0.879,0.369-1.461,0.863-1.461,0.863 s-0.965,2.314-1.129,3c-0.164,0.688-2.813,0.654-3.973,2.166c-1.762,2.281-2.01,2.908-3.393,3.563 c-1.771,0.836-2.539,1.086-2.817,1.162c-0.044,0.01-0.089,0.016-0.134,0.029c-0.188-0.018-0.365-0.037-0.537-0.055 c-4.471-0.482-4.219-0.896-10.041,0.559c-2.09,0.523-1.963-5.438-3.021-6.547c-1.496-1.543-2.518-1.512-5.037-4.029 c-1.51-5.541,3.021-12.09,1.514-22.667c-0.678-4.693-2.355-10.858-4.533-16.62c-1.232-6.6-1.006-5.037-6.547-11.584 c-10.578-14.104-18.637-18.638-23.672-33.746c-2.5-2.297-0.346,6.266-2.521,5.54c-3.867-1.289-7.756-9.569-9.568-9.569 c-1.459,0,3.777,9.016,2.016,11.584c-1.512,2.217-8.564-3.863-8.564-2.519c0,1.678,4.029,8.06,7.559,9.568 c-2.018,2.017-4.785-2.315-5.541-0.504c3.523,4.533,0.504,5.541,3.02,12.089c2.906,6.069,5.541,4.029,8.063,9.065 c-1.824,2.101-12.34-3.425-13.1-1.511c-0.514,1.272,4.889,1.358,8.564,5.036c3.021,3.021,0.906,6.789,3.021,8.061 c2.52,1.51,1.008,3.02,4.029,6.548c3.021,3.527,5.035-1.009,4.029,4.029c-0.475,2.348-2.016,2.186-2.016,4.533 c0,2.688,4.027-0.506,3.02,2.518c0,1.295-2.014,2.016-3.02,4.029c0,0.361,3.816-0.74,4.027,0.504 c0.543,3.29-3.643,5.942-2.016,8.563c1.646,2.67,6.045,2.018,8.563,1.512c-2.518,2.016-6.547,1.988-6.547,4.533 c0,4.762,5.037,6.547,2.018,9.066c1.006,2.518-2.521,4.533-2.018,6.547c0.504,2.016,2.605,4.266,5.037,5.038 c1.631,0.52,4.533,1.008,3.021,1.512c-3.021,1.006-3.525-0.504-6.045,1.51c-2.141,0-1.006-3.02-5.035-2.014 c-12.09,2.014-30.221,10.072-36.771,17.125c-1.006,1.51,6.045-1.512,10.578-2.016c-4.029,1.512-10.074,3.523-2.518,3.021 c5.539,0.504,14.102,0,28.709-2.518c10.809-0.334,8.563,3.523,19.643,1.006c5.541,1.512,14.105,3.021,21.658-2.518 c7.053-1.01,7.848-4.963,16.621-11.584c1.152-0.387,2.232-1.283,3.213-2.414c0.106-0.123,0.178-0.287,0.22-0.48 c0.001-0.002,0.002-0.002,0.003-0.006c0.371-1.545,0.887-2.354,1.197-3.639c0,0,0.4-1.678,1.27-2.286 c0.771-0.533,2.23-1.895,2.688-2.457c0,0,2.203-1.264,1.893-2.738c0.252-0.16,0.477-0.268,0.541-0.25l0.172,0.039 c0.621,0.061,2.234-0.719,2.738-2.705c0.068-0.281,0.135-1.047,0.158-1.352C2047.289,113.376,2045.662,114.005,2045.666,113.897z M2040.072,117.391c-0.277,1.162-1.443,1.883-2.605,1.604c-1.164-0.279-1.877-1.443-1.602-2.607 c0.275-1.16,1.447-1.879,2.607-1.602C2039.632,115.065,2040.353,116.233,2040.072,117.391z"></path>
           <path fill="#D85D17" d="M2038.386,115.153c-0.963-0.23-1.926,0.361-2.154,1.324c-0.23,0.959,0.359,1.926,1.322,2.152 c0.959,0.23,1.924-0.363,2.154-1.322S2039.345,115.382,2038.386,115.153z M2038.898,116.846c-0.139,0.574-0.715,0.93-1.289,0.791 c-0.576-0.139-0.932-0.715-0.793-1.289c0.137-0.574,0.715-0.93,1.289-0.793C2038.679,115.694,2039.035,116.27,2038.898,116.846z"></path>
        </g>
        <g>
           <path fill="#F9D297" d="M2038.164,119.214c-1.291,0.133-2.449-0.807-2.584-2.096c-0.133-1.291,0.807-2.447,2.098-2.582 c1.287-0.135,2.447,0.805,2.582,2.096C2040.394,117.921,2039.451,119.079,2038.164,119.214"></path>
           <path fill="#272425" d="M2039.613,116.698c0.098,0.936-0.582,1.771-1.52,1.869c-0.934,0.096-1.771-0.582-1.869-1.518 s0.584-1.771,1.518-1.871C2038.677,115.083,2039.515,115.762,2039.613,116.698"></path>
           <path fill="#FFFFFF" d="M2038.712,116.397c-0.186,0.02-0.318,0.186-0.301,0.369c0.02,0.188,0.184,0.32,0.371,0.303 c0.186-0.02,0.318-0.188,0.301-0.371C2039.066,116.512,2038.898,116.38,2038.712,116.397"></path>
        </g>
        <g>
           <path fill="#E8A02F" d="M2040.546,118.655l3.197-0.92c0,0,1.822,2.883,1.205,3.543l-2.99-1.336L2040.546,118.655z"></path>
           <path fill="#CC7C1D" d="M2041.279,121.028l3.67,0.252c-0.121-0.395-0.561-0.658-0.939-0.814c-0.381-0.15-0.797-0.266-1.086-0.555 c-0.158-0.16-0.268-0.361-0.404-0.535c-0.453-0.58-1.25-0.871-1.971-0.723L2041.279,121.028z"></path>
        </g>
        <path fill="#261818" d="M1975.269,129.253c-12.09,2.016-30.221,10.074-36.771,17.125c-1.006,1.512,6.045-1.51,10.578-2.014 c-4.029,1.51-10.074,3.521-2.518,3.02c5.229,0.477,13.158,0.051,26.318-2.115c0.756-6.402,7.428-14,7.428-14 C1978.164,131.269,1979.298,128.247,1975.269,129.253z"></path>
        <path fill="#261818" d="M2001.873,94.266c2.295-3.671,5.338-4.948,8.428-5.138c-0.039-1.023-0.119-2.082-0.277-3.193 c-0.676-4.693-2.355-10.858-4.533-16.62c-1.232-6.6-1.006-5.037-6.547-11.584c-10.578-14.104-18.637-18.638-23.672-33.746 c-2.5-2.297-0.344,6.266-2.521,5.54c-3.867-1.289-7.756-9.569-9.566-9.569c-1.459,0,3.775,9.016,2.016,11.584 c-1.512,2.217-8.564-3.863-8.564-2.519c0,1.678,4.029,8.06,7.557,9.568c-2.016,2.017-4.785-2.315-5.541-0.504 c3.525,4.533,0.504,5.541,3.021,12.089c2.906,6.069,5.541,4.029,8.061,9.065c-1.824,2.101-12.34-3.425-13.098-1.511 c-0.514,1.272,4.887,1.358,8.564,5.036c3.02,3.021,0.906,6.789,3.02,8.061c2.521,1.51,1.01,3.02,4.029,6.548 c3.021,3.527,5.035-1.009,4.029,4.029c-0.475,2.348-2.016,2.186-2.016,4.531c0,2.689,4.029-0.504,3.021,2.52 c0,1.295-2.014,2.016-3.021,4.029c0,0.361,3.818-0.74,4.029,0.504c0.543,3.29-3.643,5.942-2.016,8.563 c1.645,2.67,6.045,2.018,8.563,1.512c-2.518,2.016-6.547,1.988-6.547,4.533c0,4.762,5.037,6.547,2.016,9.066 c1.006,2.518-2.52,4.533-2.016,6.549c0.504,2.014,2.604,4.266,5.037,5.036c0.025,0.008,0.055,0.018,0.08,0.025l13.465-13.004 C1996.873,115.268,1994.373,106.266,2001.873,94.266z"></path>
     </g>
     <rect x="1682.877" y="-0.393" fill="none" width="206.605" height="206.606"></rect>
     <rect x="1476.273" y="-0.393" fill="none" width="206.604" height="206.606"></rect>
     <rect x="1269.667" y="-0.393" fill="none" width="206.606" height="206.606"></rect>
     <rect x="1063.061" y="-0.393" fill="none" width="206.605" height="206.607"></rect>
     <rect x="856.454" y="-0.393" fill="none" width="206.607" height="206.607"></rect>
     <rect x="649.848" y="-0.393" fill="none" width="206.605" height="206.607"></rect>
     <rect x="443.243" y="-0.393" fill="none" width="206.605" height="206.607"></rect>
     <rect x="238.666" y="-0.393" fill="none" width="206.605" height="206.606"></rect>
     <rect x="30.382" y="-0.393" fill="none" width="206.605" height="206.607"></rect>
  </g>
  <g id="bird-cells">
     <g>
        <path fill="#D85D17" d="M609.335,134.116c-3.496-4.665-8.563-9.581-10.577-17.631c-2.016-8.059-2.016-10.07-8.563-15.611 c-20.651-10.577-21.155-12.593-32.236-19.141c6.546-1.092,8.104-2.971,10.739-6.206c1.438-1.563,5.188-4.973,6.534-5.437 c1.185-0.408,3.554-1.621,4.351-2.183c0,0,4.714-1.531,3.438-2.829c0.38-0.114,0.708-0.173,0.789-0.127l0.205,0.114 c0.777,0.305,3.139-0.106,4.509-2.479c0.196-0.335,0.56-1.297,0.702-1.679c0.053-0.139-2.273,0.078-2.229-0.061 c0.065-0.214,2.3-0.188,2.347-0.416c0.107-0.499,0.176-1.582,0.175-2.123c0.001-0.137-2.093,0.738-2.099,0.601 c-0.01-0.167,2.055-0.79,2.036-0.961c-0.055-0.465-0.33-1.43-0.476-1.906c-0.024-0.07-1.793,1.146-1.817,1.072 c-0.055-0.157,1.808-1.116,1.744-1.272c-0.183-0.447-0.63-1.291-0.905-1.736c-0.063-0.104-0.988,1.091-1.06,0.987 c-0.087-0.128,0.994-1.034,0.896-1.162c-0.371-0.497-1.234-1.469-1.748-1.949c-0.118-0.116-0.479,1.577-0.604,1.482 c-0.077-0.063,0.488-1.516,0.411-1.567c-0.427-0.286-1.206-0.705-1.827-0.746c-0.148-0.01-0.123,1.229-0.262,1.199 c-0.096-0.02,0.07-1.262-0.021-1.275c-0.438-0.066-1.121-0.135-1.575-0.02c-0.061,0.015-0.146,1.428-0.207,1.431 c-0.121,0.012,0.082-1.438-0.036-1.423c-1.266,0.156-2.196,0.577-2.196,0.577s-2.085,2.624-2.55,3.446 c-0.459,0.823-3.856-0.188-5.904,1.334c-3.098,2.295-3.703,2.769-5.663,3.343c-2.226,0.656-3.156,1.037-3.519,1.208 c-0.063-0.008-0.13-0.017-0.191-0.022c-17.891-2.234-12.813,1.646-26.652,1.646c-9.568,1.512-18.133,1.008-28.206,4.03 c-17.125,7.051-29.213,13.095-45.331,20.146c19.141,1.513,22.666-2.519,38.279-2.015c2.015,0-2.518,4.029,0,5.037 c4.03-2.017,8.06-4.029,10.577-3.022c1.008,0.504-2.017,3.022,0.504,3.022c2.015,0,4.029-1.513,4.029,2.015 c-1.009,3.526,4.027,0.504,6.045,1.007c-0.504,2.521-0.504,4.533,0.503,7.054c2.519-1.514,3.524-3.525,5.037-1.514 c2.015,1.514,3.021,4.533,3.021,7.053c1.511,1.512,3.525-3.021,4.533-1.512c1.511,1.01,1.511,4.533,2.518,6.043 c1.009,1.514,1.396-3.092,3.022-3.523c4.029,1.008,3.021,5.037,5.54,11.082c7.556,0,8.06,4.533,12.592,9.064 c3.526-2.52,3.526,2.016,6.045-1.008c-1.008,4.533-1.512,7.557,1.007,10.577c5.541-2.014,3.526-4.03,7.558-5.036 c-1.009,2.686-1.009,7.217,0,13.6c1.345-0.676,2.518-1.18,3.523-1.512c0.504,1.512-1.008,4.029,0.504,6.043 c1.513-2.518,3.021-4.531,5.037-4.531c0,8.563,4.532,7.557,8.563,14.605c2.014,4.533,3.021,1.008,5.54,6.045 c2.255,0,2.267-1.123,2.546-3.367c0.462,1.146,1.276,2.422,1.986,3.367c1.008,3.021,1.512,4.029,8.06,6.547 c2.015-4.029-1.743-6.547,0-6.547c4.028-1.008,5.037,5.539,8.06,6.547c0-1.512-0.504-4.533,1.513-4.029 c2.519,2.52,8.563,6.047,14.103,6.549C620.919,163.833,622.43,157.284,609.335,134.116z"></path>
        <g>
           <path fill="#F9D297" d="M575.07,65.148c-2.022,0-3.668-1.646-3.668-3.667c0-2.022,1.646-3.668,3.668-3.668 c2.021,0,3.667,1.646,3.667,3.668C578.737,63.502,577.09,65.148,575.07,65.148"></path>
           <path fill="#272425" d="M577.725,61.48c0,1.466-1.189,2.655-2.656,2.655c-1.466,0-2.656-1.189-2.656-2.655 c0-1.467,1.19-2.655,2.656-2.655C576.536,58.824,577.725,60.013,577.725,61.48"></path>
           <path fill="#FFFFFF" d="M576.375,60.869c-0.291,0-0.527,0.233-0.527,0.525c0,0.29,0.236,0.527,0.527,0.527 s0.527-0.237,0.527-0.527C576.903,61.103,576.667,60.869,576.375,60.869"></path>
        </g>
        <g>
           <path fill="#E8A02F" d="M577.971,64.593l5.054,0.435c0,0,1.021,5.099-0.22,5.7l-3.526-3.53L577.971,64.593z"></path>
           <path fill="#CC7C1D" d="M577.717,68.371l5.088,2.355c0.041-0.624-0.438-1.243-0.896-1.667c-0.459-0.425-0.987-0.813-1.241-1.386 c-0.138-0.313-0.184-0.657-0.285-0.981c-0.331-1.072-1.304-1.92-2.411-2.101L577.717,68.371z"></path>
        </g>
        <path opacity="0.86" fill="#FFFFFF" enable-background="new    " d="M540.58,85.992c2.174,3.576-3.944,9.897-2.173,14.903 c0.674,1.908,8.695,2.088,13.041,2.088c1.087,2.086-3.494,5.604-1.086,6.855c13.191,2.525,35.892-10.602,31.453-8.258 c-10.176,5.375-22.717-9.466-29.354-18.902l-19.394,3.337C535.071,89.71,539.069,83.512,540.58,85.992z"></path>
        <path fill="#412C3D" d="M609.262,134.132c-3.496-4.665-8.563-9.581-10.576-17.629c-2.017-8.061-2.017-10.072-8.563-15.613 c-1.544-0.791-2.962-1.527-4.294-2.229c-2.125,1.699-5.087,3.498-3.994,2.92c4.439-2.344-18.261,10.783-31.453,8.258 c-2.408-1.254,2.173-4.77,1.086-6.855c-4.346,0-12.365-0.18-13.041-2.088c-1.771-5.006,4.349-11.327,2.174-14.903 c-1.512-2.48-5.51,3.718-7.515,0.023l-22.044,3.792c2.016,0,4.029-1.513,4.029,2.016c-1.008,3.525,4.027,0.504,6.045,1.007 c-0.504,2.52-0.504,4.534,0.503,7.053c2.519-1.512,3.525-3.525,5.037-1.512c2.015,1.512,3.021,4.531,3.021,7.051 c1.512,1.512,3.525-3.021,4.533-1.512c1.511,1.01,1.511,4.533,2.519,6.045c1.009,1.512,1.396-3.092,3.021-3.525 c4.029,1.008,3.021,5.037,5.54,11.082c7.556,0,8.061,4.533,12.592,9.064c3.526-2.52,3.526,2.016,6.045-1.008 c-1.008,4.533-1.512,7.557,1.008,10.577c5.541-2.014,3.525-4.028,7.557-5.036c-1.008,2.686-1.008,7.217,0,13.6 c1.345-0.676,2.518-1.18,3.523-1.512c0.504,1.512-1.008,4.029,0.504,6.045c1.513-2.52,3.021-4.533,5.037-4.533 c0,8.563,4.532,7.557,8.563,14.605c2.014,4.533,3.021,1.008,5.54,6.045c2.255,0,2.267-1.123,2.546-3.365 c0.462,1.145,1.277,2.42,1.986,3.365c1.008,3.021,1.512,4.029,8.06,6.549c2.016-4.031-1.743-6.549,0-6.549 c4.029-1.008,5.037,5.539,8.061,6.549c0-1.514-0.504-4.533,1.512-4.031c2.519,2.52,8.563,6.047,14.103,6.549 C620.846,163.849,622.358,157.302,609.262,134.132z"></path>
        <path fill="#412C3D" d="M497.074,70.728c-12.554,5.448-22.953,10.491-35.984,16.191c14.311,1.13,19.894-0.837,28.326-1.691 C490.348,79.747,493.076,74.767,497.074,70.728z"></path>
     </g>
     <path fill="#FFFFFF" d="M157.796-341.406c-0.291,0-0.527,0.234-0.527,0.526c0,0.29,0.236,0.527,0.527,0.527 s0.527-0.237,0.527-0.527C158.323-341.171,158.087-341.406,157.796-341.406"></path>
     <g>
        <g>
           <path fill="#D85D17" d="M404.429,135.669c-9.57-22.161-4.029-16.309-18.636-31.729c-7.555-5.036-17.125-4.029-18.132-9.569 c0.928-0.397,1.726-0.821,2.417-1.257c0.106-0.066,0.204-0.146,0.303-0.226c0.008-0.007,0.018-0.007,0.026-0.015 c0.009-0.008,0.02-0.019,0.028-0.026c0.061-0.05,0.119-0.104,0.177-0.16c1.901-1.734,5.72-4.684,7.276-5.09 c1.42-0.369,4.298-1.573,5.28-2.157c0,0,4.526-1.515,4.272-2.998c0.455-0.102,0.842-0.141,0.933-0.077l0.23,0.151 c0.882,0.426,3.676,0.155,5.491-2.493c0.259-0.374,0.771-1.466,0.972-1.896c0.073-0.156-2.664-0.112-2.599-0.271 c0.095-0.244,2.705-0.016,2.779-0.274c0.17-0.573,0.346-1.833,0.394-2.466c0.014-0.16-2.509,0.676-2.504,0.512 c0.004-0.194,2.472-0.738,2.466-0.938c-0.023-0.548-0.258-1.699-0.385-2.271c-0.022-0.084-2.198,1.176-2.22,1.09 c-0.049-0.188,2.212-1.142,2.152-1.33c-0.172-0.539-0.621-1.564-0.901-2.108c-0.067-0.128-1.254,1.185-1.327,1.058 c-0.091-0.158,1.253-1.118,1.153-1.277c-0.389-0.613-1.312-1.827-1.867-2.434c-0.129-0.148-0.701,1.799-0.841,1.677 c-0.084-0.078,0.708-1.727,0.621-1.794c-0.471-0.372-1.346-0.932-2.068-1.036c-0.173-0.022-0.253,1.425-0.414,1.377 c-0.108-0.03,0.197-1.469,0.09-1.492c-0.505-0.118-1.297-0.259-1.839-0.164c-0.072,0.012-0.302,1.654-0.37,1.652 c-0.142,0.001,0.224-1.673,0.085-1.666c-1.492,0.067-2.62,0.478-2.62,0.478s-2.672,2.878-3.288,3.798 c-0.611,0.921-4.491-0.563-7.021,1.027c-3.823,2.403-4.575,2.902-6.918,3.396c-3.819,0.814-4.474,1.206-4.474,1.206 s0.005,0.017,0.007,0.022c-0.003-0.001-0.007-0.001-0.01-0.002c-8.77-1.275-17.027-0.469-22.688,0.342 c-36.265,3.523-13.096,7.556-47.346,11.08c-11.081-3.524-12.088-7.557-27.199-3.524c17.629,1.511,12.088,5.036,22.666,6.548 c-9.066,0-8.563,4.029-13.599,6.548c15.614,0,19.644,3.525,29.213,2.52c6.381-0.671,11.75-0.671,16.118,0 c4.699-1.008,7.051,1.512,7.051,7.556c1.511,6.044,5.984-0.841,7.555,1.511c2.015,3.022-3.657,8.361-2.015,12.593 c0.625,1.611,8.059,1.764,12.088,1.764c1.007,1.764-3.239,4.734-1.007,5.793c3.022,1.007,6.548,0.755,9.57-3.022 c-3.022,4.785-2.015,3.022-2.519,8.061c4.029,0,7.721-1.678,11.081-5.036c-3.022,3.69-4.196,7.051-3.526,10.073 c2.015,1.008,5.037-4.029,5.541-1.512c-2.015,3.524-1.007,6.044,1.007,8.563c4.533-2.52,5.541,3.524,9.57-1.511 c0,7.555,5.037,3.021,21.658,18.132c1.511-0.504-1.007-3.022,1.007-3.525c2.015,0,2.519,4.029,4.533,4.029 c1.511-0.504-1.007-4.533,1.007-4.029c2.015,1.512,3.526,5.036,6.044,5.54c-0.503-3.021,1.511-1.007,2.015-3.524 c1.511,3.021,6.548,4.028,7.052,3.524C413.495,150.78,411.481,149.773,404.429,135.669z M376.702,76.194 c1.042-1.562,3.148-1.979,4.706-0.938c1.557,1.041,1.978,3.147,0.938,4.703c-1.039,1.559-3.147,1.979-4.706,0.941 C376.082,79.857,375.664,77.752,376.702,76.194z"></path>
           <path fill="#D85D17" d="M377.188,76.338c-0.86,1.285-0.511,3.026,0.777,3.889c1.285,0.859,3.026,0.51,3.887-0.776 c0.859-1.287,0.511-3.027-0.776-3.888C379.789,74.701,378.048,75.05,377.188,76.338z"></path>
           <path fill="#221616" d="M302.639,86.15v-0.081c-2.563,0.406-5.68,0.81-9.526,1.205c-11.081-3.524-12.088-7.557-27.199-3.524 c17.629,1.511,12.088,5.036,22.666,6.548c-9.066,0-8.563,4.029-13.599,6.548c4.985,0,8.788,0.359,11.969,0.815 C288.359,92.353,294.47,87.986,302.639,86.15z"></path>
           <g>
              <path fill="#412C3D" d="M404.429,135.669c-8.831-20.45-4.807-17.058-15.61-28.529c-0.956,2.455-3.066,4.81-7.18,6.789 c-13.5,6.5-31.5-22-31.5-22l-25.434,7.895c1.769,1.054,2.658,3.429,2.658,7.137c1.511,6.044,5.984-0.841,7.555,1.511 c2.015,3.022-3.657,8.361-2.015,12.593c0.625,1.611,8.059,1.764,12.088,1.764c1.007,1.764-3.239,4.734-1.007,5.793 c3.022,1.007,6.548,0.755,9.57-3.022c-3.022,4.785-2.015,3.022-2.519,8.061c4.029,0,7.721-1.678,11.081-5.036 c-3.022,3.69-4.196,7.051-3.526,10.073c2.015,1.008,5.037-4.029,5.541-1.513c-2.015,3.525-1.007,6.045,1.007,8.563 c4.533-2.52,5.541,3.524,9.57-1.511c0,7.555,5.037,3.021,21.658,18.132c1.511-0.504-1.007-3.022,1.007-3.525 c2.015,0,2.519,4.029,4.533,4.029c1.511-0.504-1.007-4.533,1.007-4.029c2.015,1.512,3.526,5.036,6.044,5.54 c-0.503-3.021,1.511-1.007,2.015-3.524c1.511,3.021,6.548,4.028,7.052,3.524C413.495,150.78,411.481,149.773,404.429,135.669z"></path>
              <path opacity="0.86" fill="#FFFFFF" enable-background="new    " d="M381.566,113.929c-13.5,6.5-31.5-22-31.5-22l-14.498,4.499 c0.142,0.837,0.222,1.77,0.222,2.818c1.511,6.044,5.984-0.841,7.555,1.511c2.015,3.022-3.657,8.361-2.015,12.592 c0.625,1.612,8.059,1.765,12.088,1.765c1.007,1.764-3.239,4.733-1.007,5.793C364.639,123.039,385.68,111.948,381.566,113.929z"></path>
           </g>
        </g>
        <g>
           <path fill="#F9D297" d="M379.52,81.562c-2.022,0-3.668-1.646-3.668-3.667c0-2.023,1.646-3.669,3.668-3.669 c2.021,0,3.667,1.646,3.667,3.669C383.187,79.915,381.541,81.562,379.52,81.562"></path>
           <path fill="#272425" d="M382.176,77.895c0,1.466-1.189,2.654-2.656,2.654c-1.466,0-2.656-1.188-2.656-2.654 c0-1.468,1.19-2.656,2.656-2.656C380.986,75.238,382.176,76.427,382.176,77.895"></path>
           <path fill="#FFFFFF" d="M380.826,77.282c-0.291,0-0.527,0.233-0.527,0.525c0,0.29,0.236,0.527,0.527,0.527 s0.527-0.237,0.527-0.527C381.353,77.517,381.117,77.282,380.826,77.282"></path>
        </g>
        <g>
           <path fill="#E8A02F" d="M382.78,81.974l5.053,0.436c0,0,1.021,5.098-0.22,5.7l-3.526-3.531L382.78,81.974z"></path>
           <path fill="#CC7C1D" d="M382.526,85.752l5.087,2.356c0.042-0.624-0.438-1.243-0.896-1.667c-0.459-0.426-0.987-0.814-1.241-1.387 c-0.138-0.313-0.184-0.656-0.285-0.98c-0.331-1.073-1.304-1.92-2.411-2.102L382.526,85.752z"></path>
        </g>
     </g>
     <g>
        <g>
           <path fill="#D85D17" d="M1630.891,117.165c0.16-0.494,0.344-1.588,0.4-2.137c0.016-0.139-2.199,0.527-2.189,0.387 c0.008-0.172,2.168-0.584,2.166-0.76c-0.006-0.477-0.184-1.482-0.279-1.982c-0.018-0.074-1.938,0.971-1.957,0.896 c-0.037-0.168,1.951-0.939,1.904-1.105c-0.139-0.475-0.504-1.377-0.732-1.857c-0.057-0.111-1.119,1.002-1.182,0.891 c-0.074-0.141,1.117-0.941,1.035-1.084c-0.324-0.543-1.098-1.619-1.564-2.16c-0.109-0.133-0.65,1.549-0.771,1.438 c-0.07-0.07,0.656-1.484,0.584-1.547c-0.4-0.336-1.148-0.842-1.773-0.949c-0.148-0.023-0.256,1.232-0.395,1.188 c-0.094-0.029,0.207-1.273,0.115-1.299c-0.439-0.113-1.123-0.255-1.6-0.185c-0.063,0.01-0.303,1.433-0.359,1.429 c-0.125-0.002,0.232-1.449,0.113-1.447c-1.301,0.021-2.291,0.351-2.291,0.351s-2.395,2.439-2.949,3.229 c-0.557,0.783-3.896-0.602-6.133,0.727c-3.385,1.998-4.053,2.414-6.102,2.789c-2.655,0.486-3.169,0.754-3.27,0.844 c-0.071,0.012-0.14,0.016-0.213,0.035c-0.188,0.047-0.381,0.092-0.584,0.135c-3.879,0.842-7.555,1.008-10.072,0 c-2.52-1.006-3.186-1.861-5.037-3.02c-9.67-5.994-5.123,0.125-9.656-10.074c-5.309-6.045-5.338-12.366-3.438-21.155 c0.486-2.267,1.145-4.104,2.016-5.54c3.02-4.949,6.381-15.413,5.541-22.666c-0.705-6.124-5.541-7.052-13.6-8.563 c-10.578-2.017-16.621-2.521-29.217-1.007c-4.529,4.027-10.574,2.518-16.619,10.577c4.531-0.506,3.523-1.514,7.053,1.511 c4.029-2.017,7.797-0.654,8.059-0.504c3.605,2.08-1.783,1.879,0.504,3.021c3.021,0,1.008,2.017,0,4.533 c2.52-0.252,4.029-0.504,3.021,2.015c2.217,1.622,4.211-1.632,4.533,0.504c0.434,2.9-5.896,4.734-4.533,8.563 c9.064,1.511,10.074,2.518,11.082,3.525c-2.018,0.504,1.51,1.008-13.096,5.54c1.51,5.035,7.051,3.021,7.555,8.06 c0,3.525-4.533,2.015-6.045,8.562c6.045,1.008,4.533,3.021,11.586,3.021c-2.521,0-9.066,2.016-13.096,6.045 c4.529,1.008,3.02,3.021,7.051,3.525c3.525,1.512,3.02,1.691,2.014,3.523c-3.271,5.977-2.518,7.559-10.072,11.586 c-7.555,4.029-13.246,7.948-17.629,11.081c-2.332,1.672-3.768,4.146-5.541,6.045c6.045-1.008,6.045-1.512,7.557-1.008 c1.008,2.016,0.504-1.512,0,5.541c3.021-2.52,8.059-6.045,11.08-8.061c2.52,0,6.549-1.512,8.563,0c2.521,0,0-3.525,0-4.514 c0-0.986,1.754,2.922,2.521,1.994c2.52-3.02,2.016-4.531,1.512-7.051c2.014,1.51,0.504,5.491,3.02,6.043 c9.57,3.023,10.576,2.52,21.154-0.504c0.605-0.035,1.486-0.463,2.166-0.482c0.605,0.717,0.355,1.512,1.863,1.994 c0.791-1.184,2.482-1.541,3.439-1.561c0.262,0-0.121-0.471,0-0.436c5.037,1.512,8.648,1.994,16.203,0.482 c5.348-3.289,10.021-2.885,14.572-5.917c0.042-0.029,0.081-0.092,0.117-0.172c0.005-0.004,0.011-0.004,0.016-0.008 c1.623-1.438,5.127-4.254,6.539-4.58c1.246-0.287,3.775-1.268,4.645-1.75l0.924-0.063c0,0,3.01-0.596,2.863-2.443 c0.398-0.074,0.736-0.102,0.814-0.047l0.195,0.143c0.758,0.391,3.195,0.223,4.838-2.037c0.232-0.32,0.705-1.256,0.891-1.629 c0.066-0.133-2.314-0.16-2.256-0.297C1628.555,117.128,1630.819,117.389,1630.891,117.165z M1619.61,118.925 c-0.939,1.33-2.783,1.646-4.113,0.705c-1.332-0.943-1.645-2.785-0.703-4.115s2.785-1.646,4.113-0.703 C1620.237,115.753,1620.553,117.594,1619.61,118.925z"></path>
           <path fill="#D85D17" d="M1618.612,115.069c-1.1-0.777-2.623-0.518-3.4,0.582c-0.779,1.1-0.518,2.621,0.584,3.4 c1.098,0.777,2.619,0.516,3.398-0.582C1619.971,117.368,1619.711,115.846,1618.612,115.069z M1618.401,117.473 c-0.467,0.658-1.377,0.813-2.035,0.348c-0.658-0.467-0.814-1.379-0.348-2.035c0.465-0.658,1.377-0.813,2.035-0.35 C1618.711,115.901,1618.866,116.815,1618.401,117.473z"></path>
        </g>
        <path fill="#261818" d="M1542.883,131.153c1.127-4.51,1.262-6.84,0.559-7.865c-1.117,0.996-2.668,2.021-5.043,3.285 c-7.555,4.029-13.246,7.95-17.629,11.083c-2.332,1.672-3.768,4.146-5.541,6.043c6.045-1.008,6.045-1.51,7.557-1.008 c1.01,2.018,0.506-1.51,0,5.541c3.021-2.518,8.061-6.043,11.08-8.059c2.504,0,6.498-1.49,8.523-0.025 C1541.997,137.419,1542.067,134.413,1542.883,131.153z"></path>
        <path fill="#261818" d="M1562.132,90.995c1.594-5.423,6.723-6.65,11.691-6.438c0.189-1.224,0.424-2.489,0.711-3.817 c0.488-2.267,1.145-4.104,2.016-5.54c3.021-4.949,6.381-15.413,5.541-22.666c-0.705-6.124-5.541-7.052-13.6-8.563 c-10.578-2.017-16.621-2.521-29.215-1.007c-4.531,4.027-10.576,2.518-16.621,10.577c4.533-0.506,3.525-1.514,7.053,1.511 c4.029-2.017,7.797-0.654,8.059-0.504c3.605,2.08-1.783,1.879,0.504,3.021c3.021,0,1.008,2.017,0,4.533 c2.52-0.252,4.029-0.504,3.021,2.015c2.217,1.622,4.211-1.632,4.533,0.504c0.434,2.9-5.895,4.734-4.533,8.563 c9.066,1.511,10.074,2.518,11.082,3.525c-2.016,0.504,1.51,1.008-13.096,5.54c1.51,5.035,7.051,3.021,7.555,8.06 c0,3.525-4.533,2.015-6.045,8.562c6.045,1.008,4.533,3.021,11.586,3.021c-2.52,0-9.066,2.016-13.096,6.045 c4.531,1.008,3.02,3.021,7.051,3.525c3.525,1.512,3.021,1.691,2.014,3.523c-0.094,0.172-0.174,0.326-0.26,0.492l13.545-3.66 C1561.628,111.819,1558.755,102.485,1562.132,90.995z"></path>
        <g>
           <path fill="#F9D297" d="M1617.335,119.768c-1.713,0.179-3.248-1.069-3.428-2.779c-0.176-1.714,1.07-3.247,2.781-3.427 c1.711-0.179,3.248,1.067,3.426,2.781C1620.292,118.053,1619.044,119.591,1617.335,119.768"></path>
           <path fill="#272425" d="M1619.259,116.431c0.129,1.241-0.771,2.352-2.016,2.479c-1.24,0.128-2.354-0.772-2.48-2.013 c-0.129-1.24,0.775-2.353,2.014-2.481C1618.019,114.288,1619.13,115.19,1619.259,116.431"></path>
           <path fill="#FFFFFF" d="M1618.064,116.033c-0.246,0.025-0.426,0.244-0.398,0.49c0.025,0.246,0.244,0.427,0.494,0.4 c0.244-0.025,0.422-0.248,0.398-0.493C1618.533,116.185,1618.308,116.009,1618.064,116.033"></path>
        </g>
        <g>
           <path fill="#E8A02F" d="M1619.359,120.146l4.381,0.514c0,0,0.752,4.464-0.342,4.954l-2.975-3.167L1619.359,120.146z"></path>
           <path fill="#CC7C1D" d="M1619.035,123.427l4.361,2.188c0.055-0.543-0.348-1.094-0.732-1.479c-0.391-0.38-0.84-0.731-1.045-1.234 c-0.111-0.275-0.143-0.578-0.223-0.861c-0.258-0.941-1.082-1.705-2.039-1.895L1619.035,123.427z"></path>
        </g>
     </g>
     <g>
        <g>
           <path fill="#D85D17" d="M1849.625,137.981c0.021-0.238,2.355-0.734,2.354-0.979c-0.006-0.547-0.189-1.69-0.314-2.255 c-0.031-0.144-2.008,1.259-2.047,1.113c-0.049-0.172,1.959-1.303,1.898-1.476c-0.166-0.474-0.68-1.413-0.941-1.876 c-0.041-0.07-1.604,1.609-1.646,1.541c-0.092-0.152,1.625-1.586,1.521-1.734c-0.293-0.424-0.957-1.197-1.348-1.598 c-0.092-0.095-0.777,1.368-0.875,1.276c-0.119-0.112,0.795-1.31,0.666-1.421c-0.502-0.433-1.631-1.242-2.273-1.624 c-0.154-0.092-0.131,1.757-0.289,1.688c-0.094-0.044,0.158-1.691,0.064-1.729c-0.512-0.199-1.422-0.453-2.078-0.351 c-0.156,0.022,0.158,1.308,0.006,1.311c-0.104,0.001-0.219-1.334-0.318-1.327c-0.473,0.034-1.201,0.122-1.645,0.352 c-0.063,0.029,0.18,1.521,0.117,1.542c-0.125,0.038-0.252-1.521-0.369-1.479c-1.281,0.457-2.156,1.115-2.156,1.115 s-1.563,3.22-1.854,4.188c-0.287,0.967-4.063,0.705-5.844,2.768c-2.691,3.113-3.215,3.749-5.125,4.807 c-3.107,1.724-2.975,1.974-2.975,1.974c-1.338,0.771-2.986,1.26-5.418,1.106c-5.252-0.326-6.547-3.524-10.576-5.541 c-4.029-2.015-6.549-2.519-9.57-6.044c-6.547-21.152-0.639-4.813-1.512-29.717c-0.135-3.808-3.02-22.162-0.502-27.198 c4.029-1.512,2.438-6.949,0-11.081c-16.119-17.125-20.258-29.229-30.221-39.791c-2.016-0.504,2.518,6.046-1.008,3.526 c-4.436-2.56-3.525-7.052-11.584-11.081c0.502,2.521,2.014,6.044,1.006,7.555c-2.52-1.511-7.051-11.584-10.072-11.584 c0.504,2.017,4.029,5.54,4.029,11.584c0,2.017-7.053-3.021-4.533-0.504c2.518,2.521,3.525,6.548,4.533,9.57 c2.485,4.522,6.722,8.254,9.173,10.018c-2.812-1.731-7.73-4.862-11.19-4.478c1.01,2.519,4.029,3.526,5.037,8.563 c-1.008,1.01,0,1.514-4.027,0c2.014,9.57,7.051,14.104,17.629,20.651c1.309,2.136-5.594-2.104-7.055-0.504 c-1.309,1.421,0.844,4.332,2.521,7.556c4.619,8.864,9.227,9.529,10.074,15.11c-0.504,2.015-4.922-0.635-7.055,1.007 c-1.145,0.877,2.395,2.894,2.018,5.037c-0.379,2.136-4.646,0.846-4.029,3.021c1.248,1.502-1.008,6.046-0.504,8.563 c0.504,2.52,2.014,3.022,2.014,5.541c0,2.52,3.525-1.008,4.029,3.021c2.52,2.016-0.504,2.016-4.029,6.046 c2.52,2.518,5.037,2.015,4.029,7.051c-1.006,5.037-3.525,3.021-6.043,6.044c-2.52,3.525-1.512,5.541-5.037,8.563 c-4.533,4.03-7.555,2.018-15.613,8.062c-6.549,3.524-7.053,1.007-15.109,6.548c9.066,1.007,18.133,6.044,34.25,2.52 c2.518,1.008-2.52,2.519-1.008,3.524c7.051,0.504,8.059,1.511,11.584,0c-2.016,1.511-5.35,4.382-3.525,4.533 c4.297,0.372,11.775-0.479,15.111,0c4.229,0.604,6.422,2.519,13.598,2.519c3.879,0,8.186-4.119,10.578-3.524 c3.678,0.906,3.021,1.476,8.563,0c9.736-2.595,12.088-4.533,19.646-9.569c0.229-0.344,0.453-0.663,0.672-0.961 c0.254-0.344,0.428-0.726,0.543-1.132c0.065-0.024,0.123-0.064,0.164-0.136c1.135-1.969,1.242-2.477,1.785-4.286 c0,0,0.709-2.357,2.002-3.154c1.139-0.702,3.326-2.519,4.023-3.288c0,0,4.557-2.698,2.924-3.753 c0.369-0.208,0.697-0.345,0.793-0.315l0.24,0.072c0.881,0.134,3.246-0.846,4.123-3.637c0.123-0.396,0.279-1.483,0.34-1.915 C1851.987,137.368,1849.614,138.137,1849.625,137.981z M1841.37,142.517c-0.494,1.635-2.215,2.563-3.85,2.073 c-1.637-0.494-2.563-2.218-2.07-3.853c0.49-1.635,2.213-2.563,3.85-2.072C1840.934,139.156,1841.862,140.882,1841.37,142.517z"></path>
           <path fill="#D85D17" d="M1839.145,139.179c-1.354-0.405-2.777,0.361-3.184,1.713c-0.404,1.351,0.361,2.774,1.713,3.181 s2.775-0.359,3.182-1.712C1841.262,141.01,1840.495,139.587,1839.145,139.179z M1839.737,141.637 c-0.244,0.809-1.096,1.267-1.904,1.022s-1.268-1.094-1.025-1.902c0.242-0.812,1.096-1.271,1.904-1.025 C1839.52,139.974,1839.979,140.827,1839.737,141.637z"></path>
        </g>
        <g>
           <path fill="#F9D297" d="M1838.111,144.722c-1.826,0.188-3.465-1.143-3.656-2.967c-0.188-1.827,1.143-3.463,2.967-3.653 c1.824-0.191,3.467,1.139,3.654,2.966C1841.267,142.892,1839.933,144.532,1838.111,144.722"></path>
           <path fill="#272425" d="M1840.162,141.161c0.139,1.324-0.822,2.51-2.148,2.646c-1.322,0.137-2.51-0.824-2.645-2.146 c-0.141-1.323,0.824-2.509,2.146-2.646C1838.839,138.876,1840.025,139.838,1840.162,141.161"></path>
           <path fill="#FFFFFF" d="M1838.888,140.737c-0.262,0.028-0.453,0.262-0.428,0.524c0.029,0.263,0.264,0.453,0.527,0.427 c0.262-0.027,0.451-0.264,0.426-0.526C1839.386,140.899,1839.15,140.711,1838.888,140.737"></path>
        </g>
        <g>
           <path fill="#E8A02F" d="M1841.556,144.387l4.443-1.146c0,0,2.402,4.049,1.523,4.937l-4.072-1.959L1841.556,144.387z"></path>
           <path fill="#CC7C1D" d="M1842.472,147.692l5.053,0.487c-0.152-0.547-0.748-0.931-1.266-1.157 c-0.521-0.226-1.09-0.398-1.479-0.808c-0.211-0.228-0.354-0.51-0.537-0.756c-0.604-0.814-1.689-1.247-2.688-1.071 L1842.472,147.692z"></path>
        </g>
        <path fill="#261818" d="M1755.024,146.484c-3.896,2.721-7.064,1.606-14.355,7.075c-6.549,3.523-7.053,1.007-15.109,6.548 c8.607,0.956,17.227,5.529,31.865,2.976C1761.389,156.996,1757.485,149.923,1755.024,146.484z"></path>
        <path fill="#261818" d="M1780.811,121.639c-2.176-5.2,6.484-17.364,15.627-26.211c-0.689-6.871-1.33-15.747,0.303-19.017 c4.029-1.512,2.439-6.949,0-11.081c-16.119-17.125-20.258-29.229-30.221-39.791c-2.016-0.504,2.518,6.046-1.008,3.526 c-4.434-2.56-3.525-7.052-11.584-11.081c0.502,2.521,2.014,6.044,1.006,7.555c-2.518-1.511-7.051-11.584-10.072-11.584 c0.504,2.017,4.029,5.54,4.029,11.584c0,2.017-7.053-3.021-4.533-0.504c2.518,2.521,3.525,6.548,4.533,9.57 c2.484,4.521,6.719,8.25,9.17,10.016c0.875,0.538,1.553,0.946,1.91,1.065c0,0.161-0.762-0.238-1.91-1.065 c-2.813-1.73-7.729-4.858-11.186-4.476c1.008,2.519,4.029,3.526,5.037,8.563c-1.008,1.01,0,1.514-4.029,0 c2.014,9.57,7.051,14.104,17.629,20.651c1.309,2.136-5.592-2.104-7.053-0.504c-1.309,1.421,0.842,4.332,2.52,7.556 c4.619,8.864,9.227,9.529,10.074,15.11c-0.504,2.015-4.922-0.635-7.053,1.007c-1.145,0.877,2.393,2.894,2.016,5.037 c-0.379,2.136-4.645,0.846-4.029,3.021c1.248,1.502-1.008,6.046-0.504,8.563c0.504,2.52,2.014,3.022,2.014,5.541 c0,2.52,3.525-1.008,4.029,3.021c2.52,2.016-0.504,2.016-4.029,6.046c2.521,2.518,5.037,2.015,4.029,7.051 c-1.006,5.037-3.525,3.021-6.043,6.044c-0.438,0.613-0.766,1.179-1.033,1.714l5.143-4.26 C1765.59,134.307,1783.877,128.972,1780.811,121.639z"></path>
     </g>
     <path fill="#D85D17" d="M1902.742,107.559c-0.357-0.12-1.035-0.526-1.91-1.064C1901.98,107.321,1902.742,107.719,1902.742,107.559z "></path>
     <g>
        <g>
           <path fill="#D85D17" d="M1419.341,109.131c0.158-0.509,0.332-1.622,0.383-2.185c0.014-0.142-2.236,0.565-2.229,0.421 c0.006-0.174,2.201-0.623,2.197-0.802c-0.014-0.485-0.207-1.511-0.313-2.02c-0.02-0.075-1.965,1.016-1.984,0.938 c-0.041-0.169,1.98-0.983,1.93-1.151c-0.146-0.479-0.529-1.396-0.771-1.885c-0.057-0.112-1.127,1.035-1.191,0.922 c-0.078-0.142,1.129-0.977,1.041-1.116c-0.336-0.552-1.139-1.641-1.623-2.187c-0.113-0.133-0.646,1.588-0.77,1.479 c-0.074-0.07,0.65-1.522,0.574-1.584c-0.412-0.338-1.184-0.847-1.82-0.946c-0.152-0.024-0.244,1.26-0.387,1.217 c-0.096-0.028,0.193-1.301,0.1-1.324c-0.445-0.109-1.146-0.245-1.629-0.169c-0.064,0.011-0.289,1.466-0.352,1.463 c-0.127,0,0.223-1.48,0.1-1.478c-1.326,0.04-2.332,0.388-2.332,0.388s-2.408,2.521-2.967,3.327 c-0.559,0.81-3.98-0.56-6.244,0.819c-3.426,2.082-4.102,2.516-6.186,2.924c-3.396,0.674-3.348,0.945-3.348,0.945 s0.002,0.008,0.002,0.009c-4.038,0.976-5.845,1.225-8.373-1.175c-12.088-7.558-5.539-9.57-16.117-22.162 c-4.533-3.526-6.043-5.541-2.016-10.577c6.549-7.052,8.564-11.081,8.564-16.118c-2.016-3.525-42.814-1.511-56.916,17.125 c2.549,0.579,8.461-3.374,10.4-3.021c2.188,0.504-9.396,6.549-4.859,5.539c4.533-1.007,7.555-3.523,10.576-3.523 c1.346-0.025-1.008,1.007-1.51,3.523c1.9,0.453,4.936-0.932,8.059-1.511c1.77-0.327,3.979,0.171,5.035,0 c-2.018,1.511-5.035,0.504-10.072,8.563c3.021,2.771,7.051-0.756,10.072-0.756c-1.51,2.771-5.539,1.26-7.557,10.323 c1.01,2.017,5.539-3.021,4.533-1.007c0,2.017-3.523,1.007-4.533,9.066c3.021,0,4.029-3.526,4.533-1.008 c-1.008,1.511-2.52,1.511-2.52,4.531c1.512,1.513,4.533-2.015,5.541-2.015c-0.504,1.007-3.021,1.007-3.021,5.037 c-19.141,4.533-24.682,9.064-34.25,15.109c3.525,2.469,11.584-2.52,12.592-0.504c-0.732,1.621-5.541,2.973-14.104,5.539 c8.563,1.01,15.613,1.01,21.482-2.566c5.213,0.555,9.354-0.957,10.752-0.957c2.016,3.021,0,6.549,3.525,7.555 c1.512-2.518,4.029-6.043,4.533-7.555c1.512-1.008-2.518,5.541,1.512,6.549c4.533,0,9.57,3.524,18.133,3.524 c9.064,0,11.08-3.022,21.154-6.549c4.736-0.395,8.234-1.717,10.738-5.422c0.166-0.245,0.327-0.502,0.484-0.769 c1.793-1.558,4.655-3.828,5.912-4.138c1.266-0.311,3.834-1.34,4.713-1.846c0,0,5.027-1.139,3.83-2.604 c0.404-0.082,0.75-0.111,0.828-0.059l0.203,0.141c0.777,0.389,3.26,0.188,4.906-2.141c0.23-0.328,0.703-1.29,0.887-1.672 c0.066-0.137-2.363-0.134-2.303-0.271C1416.96,109.12,1419.269,109.359,1419.341,109.131z M1407.865,111.075 c-0.941,1.367-2.818,1.713-4.189,0.771c-1.369-0.946-1.713-2.82-0.77-4.188c0.943-1.369,2.818-1.715,4.188-0.771 C1408.46,107.829,1408.806,109.704,1407.865,111.075z"></path>
           <path fill="#D85D17" d="M1406.794,107.155c-1.131-0.777-2.682-0.494-3.461,0.639c-0.779,1.131-0.492,2.681,0.639,3.459 c1.129,0.779,2.678,0.492,3.459-0.638C1408.21,109.484,1407.925,107.935,1406.794,107.155z M1406.609,109.609 c-0.467,0.677-1.395,0.846-2.07,0.38c-0.678-0.466-0.848-1.394-0.381-2.069c0.467-0.681,1.395-0.851,2.07-0.384 C1406.906,108.003,1407.078,108.931,1406.609,109.609z"></path>
        </g>
        <path fill="#261818" d="M1307.093,123.125c3.525,2.469,11.584-2.52,12.592-0.505c-0.734,1.622-5.541,2.974-14.104,5.54 c8.563,1.01,15.613,1.01,21.48-2.566c3.604,0.383,6.689-0.22,8.719-0.629c-4.543-5.828-7.148-9.945-8.422-12.846 C1318.537,115.392,1313.8,118.886,1307.093,123.125z"></path>
        <path fill="#261818" d="M1352.59,106.473c6.18-2,1.154-8,3.939-24c1.238-7.119,3.449-7.64,6.494-6.145 c0.365-0.915,1-1.935,1.955-3.129c6.549-7.052,8.564-11.081,8.564-16.118c-2.018-3.525-42.814-1.511-56.916,17.125 c2.549,0.579,8.461-3.374,10.398-3.021c2.189,0.504-9.395,6.549-4.857,5.539c4.531-1.007,7.555-3.523,10.574-3.523 c1.348-0.025-1.008,1.007-1.51,3.523c1.902,0.453,4.938-0.932,8.061-1.511c1.77-0.327,3.979,0.171,5.033,0 c-2.016,1.511-5.033,0.504-10.07,8.563c3.02,2.771,7.051-0.756,10.07-0.756c-1.51,2.771-5.537,1.26-7.555,10.323 c1.008,2.017,5.539-3.021,4.533-1.007c0,2.017-3.525,1.007-4.533,9.066c3.021,0,4.029-3.526,4.533-1.008 c-1.008,1.511-2.52,1.511-2.52,4.531c1.512,1.513,4.533-2.015,5.541-2.015c-0.482,0.963-2.803,1.015-3.002,4.547 C1345.104,107.964,1348.329,107.853,1352.59,106.473z"></path>
        <g>
           <path fill="#F9D297" d="M1404.546,112.19c-1.652-0.576-2.529-2.39-1.955-4.042c0.578-1.654,2.393-2.528,4.043-1.952 c1.652,0.575,2.529,2.388,1.953,4.041C1408.013,111.889,1406.197,112.764,1404.546,112.19"></path>
           <path fill="#272425" d="M1407.759,109.948c-0.416,1.199-1.727,1.83-2.926,1.412c-1.197-0.417-1.832-1.727-1.414-2.924 c0.416-1.199,1.729-1.832,2.928-1.415C1407.544,107.439,1408.179,108.749,1407.759,109.948"></path>
           <path fill="#FFFFFF" d="M1406.832,109.065c-0.236-0.083-0.496,0.042-0.58,0.279c-0.082,0.238,0.043,0.499,0.281,0.582 c0.236,0.083,0.498-0.044,0.58-0.281C1407.197,109.406,1407.072,109.148,1406.832,109.065"></path>
        </g>
        <g>
           <path fill="#E8A02F" d="M1408.564,112.71l4.463,0.463c0,0,0.828,4.529-0.279,5.045l-3.068-3.182L1408.564,112.71z"></path>
           <path fill="#CC7C1D" d="M1408.279,116.053l4.467,2.166c0.047-0.555-0.367-1.107-0.768-1.492c-0.4-0.383-0.861-0.738-1.078-1.244 c-0.117-0.281-0.152-0.586-0.238-0.875c-0.273-0.955-1.123-1.719-2.1-1.896L1408.279,116.053z"></path>
        </g>
     </g>
     <g>
        <g>
           <path fill="#D85D17" d="M1208.151,93.917c0-0.07-1.979,0.488-1.979,0.416c0-0.158,1.982-0.459,1.975-0.618 c-0.029-0.461-0.178-1.364-0.289-1.854c-0.027-0.114-1.232,0.688-1.266,0.571c-0.039-0.146,1.221-0.634,1.172-0.778 c-0.184-0.563-0.67-1.711-0.986-2.304c-0.072-0.146-0.916,1.283-1.004,1.158c-0.053-0.079,0.906-1.226,0.854-1.295 c-0.299-0.392-0.877-1.011-1.428-1.237c-0.133-0.054-0.488,1.076-0.607,1.007c-0.078-0.046,0.453-1.123,0.373-1.164 c-0.375-0.195-0.975-0.465-1.424-0.5c-0.059-0.005-0.568,1.249-0.625,1.234c-0.113-0.027,0.518-1.28,0.402-1.301 c-1.193-0.248-2.17-0.152-2.17-0.152s-2.695,1.74-3.367,2.344c-0.67,0.606-3.441-1.352-5.764-0.601 c-3.514,1.131-4.207,1.375-6.162,1.295c-2.014-0.08-2.922,0.026-3.318,0.118c-2.584-2.127-4.025-7.249-1.039-12.102 c3.525-1.511,5.037-4.533,5.539-7.051c-4.029-2.015-5.539-2.519-11.08-2.015c-32.738,2.015-42.813,14.103-55.4,25.184 c-4.031,3.525,5.033,2.519,9.063,2.519c-21.154,0-39.287,20.65-36.266,18.638c3.021-2.018,8.059,3.02,17.629-5.541 c1.008-0.504-3.525,2.518-7.555,7.555c10.576-1.51,10.576-3.02,19.643-2.014c-1.006,3.523,1.813,3.637,4.533,4.027 c2.182,0.313,4.635-0.223,7.557,0c6.313,0.705,6.547-0.504,9.064-0.504c3.021,0,2.695,0.303,4.533,0 c4.533-1.008,3.525-1.512,5.037-3.523c-1.512,4.027,0.504,5.539,3.021,10.576c2.094-1.795,2.762-3.941,2.963-5.92 c-0.066,2.244-0.047,1.943,1.066,4.912c2.643-2.201,2.975-2.096,3.688-4.727c-0.975,4.365,0.02,7.742,1.854,12.785 c2.518,0,3.443-2.35,5.035-1.514c0,2.52,0,1.514,3.021,6.549c2.52-2.52,1.008,1.512,3.527-4.029 c-0.508,5.037,2.014,2.016,5.033,9.066c2.521-5.037,1.514-7.053-0.504-11.586c3.021,6.549,4.029,6.045,6.549,9.57 c1.01-9.57-0.504-11.586-3.523-18.133c1.51-9.57-3.021-10.074-2.521-16.873c0.234-0.309,0.465-0.563,0.697-0.797 c1.793-0.98,6.313-2.867,7.668-2.875c1.199-0.006,3.719-0.379,4.615-0.645l0.857,0.135c0,0,3.822-1.586,3.883-1.52l0.15,0.166 c0.611,0.516,2.879,0.865,4.852-0.866c0.277-0.243,0.904-1.005,1.148-1.308c0.092-0.108-2.086-0.625-2.002-0.737 c0.125-0.174,2.145,0.533,2.256,0.345c0.25-0.42,0.643-1.384,0.809-1.872c0.045-0.124-2.123,0.025-2.084-0.102 c0.041-0.153,2.104-0.087,2.141-0.247C1208.09,95.353,1208.137,94.394,1208.151,93.917z M1196.44,97.295 c-1.137,1.023-2.891,0.934-3.914-0.203c-1.023-1.142-0.93-2.893,0.207-3.913c1.139-1.024,2.891-0.934,3.914,0.206 C1197.668,94.519,1197.579,96.271,1196.44,97.295z"></path>
           <path fill="#D85D17" d="M1193.088,93.387c-0.939,0.846-1.016,2.294-0.168,3.231c0.844,0.94,2.291,1.016,3.232,0.17 c0.938-0.846,1.014-2.294,0.17-3.232C1195.475,92.618,1194.028,92.541,1193.088,93.387z M1193.799,93.678 c0.563-0.511,1.428-0.463,1.938,0.101c0.504,0.563,0.459,1.429-0.105,1.938c-0.563,0.507-1.428,0.459-1.936-0.104 C1193.19,95.05,1193.237,94.183,1193.799,93.678z"></path>
        </g>
        <g>
           <path fill="#F9D297" d="M1193.713,98.368c-1.65-0.576-2.527-2.39-1.953-4.042c0.576-1.654,2.391-2.528,4.043-1.952 c1.65,0.575,2.529,2.388,1.951,4.041C1197.18,98.067,1195.366,98.943,1193.713,98.368"></path>
           <path fill="#272425" d="M1196.928,96.127c-0.418,1.198-1.729,1.83-2.928,1.412c-1.197-0.417-1.832-1.728-1.414-2.925 c0.418-1.199,1.73-1.832,2.928-1.415C1196.713,93.617,1197.346,94.927,1196.928,96.127"></path>
           <path fill="#FFFFFF" d="M1196,95.243c-0.238-0.083-0.498,0.042-0.58,0.279c-0.084,0.238,0.041,0.499,0.279,0.582 s0.498-0.044,0.582-0.281C1196.364,95.585,1196.239,95.326,1196,95.243"></path>
        </g>
        <g>
           <path fill="#E8A02F" d="M1196.668,98.772l4.213,1.552c0,0-0.318,4.594-1.521,4.818l-2.186-3.842L1196.668,98.772z"></path>
           <path fill="#CC7C1D" d="M1195.569,101.94l3.793,3.205c0.182-0.525-0.084-1.164-0.375-1.635c-0.293-0.473-0.652-0.93-0.736-1.475 c-0.045-0.301-0.004-0.604-0.014-0.904c-0.031-0.994-0.664-1.944-1.566-2.359L1195.569,101.94z"></path>
        </g>
        <path fill="#261818" d="M1113.096,100.578c-13.045,5.873-21.889,16.229-19.709,14.773c3.021-2.016,8.061,3.021,17.631-5.539 c1.008-0.504-3.525,2.518-7.557,7.555c10.576-1.512,10.576-3.021,19.645-2.016c-0.939,3.287,1.449,3.605,3.98,3.953 C1125.243,111.623,1120.227,104.801,1113.096,100.578z"></path>
        <path fill="#261818" d="M1185.561,122.905c1.104-7.004-1.021-9.156-2.047-12.471c-5.855-2.744-13.383-7.076-16.635-12.297 c-0.625-2.29,4.354-1.437,5.049-3.372c-2.582-2.792-7.227-8.049-6.4-9.615c1.846-3.507,7.705-3.9,10.01-6.127 c-2.557,0.136-5.191,0.215-7.9,0.215c-9.275,0-17.818-0.837-24.65-2.243c-9.426,4.841-15.541,11.169-22.396,17.202 c-4.029,3.525,5.035,2.519,9.064,2.519c-3.336,0-6.592,0.527-9.707,1.387c0.754-0.054,1.514-0.089,2.283-0.089 c13.5,0,25.035,8.234,29.697,19.865c0.994-0.576,0.941-1.246,1.902-2.525c-1.512,4.027,0.504,5.541,3.021,10.578 c2.094-1.795,2.762-3.943,2.963-5.92c-0.066,2.244-0.047,1.943,1.064,4.91c2.645-2.201,2.977-2.094,3.689-4.725 c-0.977,4.363,0.02,7.74,1.854,12.783c2.518,0,3.443-2.35,5.035-1.514c0,2.521,0,1.514,3.021,6.549 c2.52-2.518,1.008,1.514,3.525-4.027c-0.506,5.037,2.016,2.014,5.035,9.064c2.521-5.037,1.512-7.053-0.504-11.586 c3.021,6.549,4.029,6.047,6.549,9.57C1190.092,131.469,1188.581,129.453,1185.561,122.905z"></path>
        <path fill="#261818" d="M1165.528,85.15c-0.826,1.567,3.818,6.823,6.4,9.615c-0.695,1.937-5.674,1.082-5.049,3.372 c3.252,5.222,10.777,9.554,16.635,12.296c-0.377-1.213-0.607-2.578-0.475-4.4c0.234-0.309,0.465-0.563,0.697-0.797l-1.166-15.056 c-2.49-2.051-3.906-6.881-1.334-11.57c-1.84,0.176-3.75,0.31-5.699,0.414C1173.233,81.25,1167.374,81.642,1165.528,85.15z"></path>
        <path opacity="0.86" fill="#FFFFFF" enable-background="new    " d="M1165.528,85.15c-0.826,1.567,3.818,6.823,6.4,9.615 c-0.695,1.937-5.674,1.082-5.049,3.372c3.252,5.222,10.777,9.554,16.635,12.296c-0.377-1.213-0.607-2.578-0.475-4.4 c0.234-0.309,0.465-0.563,0.697-0.797l-1.166-15.056c-2.49-2.051-3.906-6.881-1.334-11.57c-1.84,0.176-3.75,0.31-5.699,0.414 C1173.233,81.25,1167.374,81.642,1165.528,85.15z"></path>
     </g>
     <g>
        <path fill="#D85D17" d="M1007.226,115.073c-2.014-11.586-1.51-14.104-7.051-21.659c-1.512-3.523-5.037-4.027-6.547-3.523 c0.68-0.342,1.162-0.733,1.555-1.13c0.096-0.006,4.402-5.496,5.738-6.138c1.174-0.563,3.479-2.099,4.234-2.771l0.904-0.269 c0,0,3.334-1.393,2.309-3.066c0.381-0.163,0.711-0.264,0.801-0.228l0.225,0.096c0.844,0.222,3.23-0.485,4.363-3.101 c0.162-0.371,0.424-1.406,0.525-1.817c0.039-0.148-2.34,0.354-2.311,0.205c0.043-0.229,2.354-0.472,2.375-0.709 c0.053-0.529-0.01-1.656-0.072-2.217c-0.018-0.142-2.072,1.014-2.096,0.869c-0.029-0.171,2.027-1.062,1.988-1.234 c-0.111-0.475-0.512-1.438-0.719-1.913c-0.035-0.07-1.717,1.396-1.75,1.323c-0.076-0.155,1.732-1.367,1.648-1.521 c-0.24-0.44-0.807-1.259-1.143-1.688c-0.08-0.1-0.893,1.245-0.977,1.147c-0.105-0.123,0.902-1.188,0.789-1.308 c-0.441-0.471-1.451-1.37-2.037-1.807c-0.141-0.105-0.309,1.688-0.449,1.604c-0.088-0.056,0.324-1.624,0.236-1.668 c-0.475-0.245-1.33-0.584-1.979-0.555c-0.152,0.009,0.021,1.283-0.127,1.271c-0.1-0.009-0.076-1.313-0.174-1.316 c-0.461-0.017-1.174-0.005-1.631,0.169c-0.063,0.023,0.018,1.493-0.043,1.505c-0.123,0.024-0.088-1.495-0.207-1.467 c-1.289,0.313-2.201,0.857-2.201,0.857s-1.842,2.959-2.223,3.865c-0.379,0.903-4.01,0.269-5.941,2.083 c-2.926,2.738-3.496,3.303-5.453,4.13c-1.408,0.598-2.172,0.979-2.588,1.223c-0.059-0.037-0.105-0.058-0.125-0.045 c-12.09-1.511-15.615-0.504-22.162,1.008c-23.17,6.044-21.659,6.044-35.259,11.584c-23.169,13.602-19.646,15.11-29.213,20.147 c11.585,3.021,15.612-1.512,23.673-3.526c-3.359,1.346-4.367,3.022-3.022,5.037c3.36-1.345,5.541-1.849,6.55-1.511 c-2.521,1.007-4.888,5.322-2.521,5.037c13.6-1.01,15.463-7.189,23.17-7.558c-2.016,2.521-3.021,4.029-2.016,6.548 c6.045-1.511,5.542-1.008,9.065-2.015c-1.008,3.022-1.512,3.022,0,7.556c4.281,1.01,6.547-2.518,6.547-2.518 c2.018,2.014,0,5.539,0,10.072c5.541,0,5.541,1.008,7.559,0c-1.01,4.027,1.006,4.027,2.518,7.053 c2.016-4.031,3.525-2.52,7.053-6.045c-1.008,6.547,2.52,6.045,3.021,10.576c4.275-3.85,5.283-5.162,6.107-8.555 c-0.984,5.758,1.596,7.08,2.957,12.08c2.016-3.525,3.525-3.525,4.029-8.059c0.504,2.518,2.004,3.963,2.52,3.02 c1.512-5.037,1.672-4.09,2.016-3.02c-1.512,6.547,1.006,8.059,2.52,13.598c3.523-6.043,2.518-9.064,2.518-9.566 c1.008,7.555,7.557,4.027,14.104,16.621C1020.828,144.789,1010.753,132.701,1007.226,115.073z M997.96,72.89 c0.643-1.534,2.408-2.257,3.939-1.613c1.533,0.645,2.256,2.407,1.611,3.939c-0.643,1.53-2.406,2.256-3.939,1.612 C998.039,76.186,997.318,74.422,997.96,72.89z"></path>
        <g>
           <path fill="#F9D297" d="M1000.771,77.111c-1.75,0-3.174-1.424-3.174-3.174c0-1.751,1.424-3.174,3.174-3.174 s3.174,1.423,3.174,3.174C1003.945,75.687,1002.521,77.111,1000.771,77.111"></path>
           <path fill="#272425" d="M1003.07,73.937c0,1.269-1.029,2.297-2.299,2.297s-2.301-1.028-2.301-2.297 c0-1.27,1.031-2.299,2.301-2.299S1003.07,72.668,1003.07,73.937"></path>
           <path fill="#FFFFFF" d="M1001.902,73.407c-0.252,0-0.455,0.203-0.455,0.455s0.203,0.457,0.455,0.457s0.457-0.205,0.457-0.457 S1002.154,73.407,1001.902,73.407"></path>
        </g>
        <g>
           <path fill="#E8A02F" d="M1004.126,76.369l4.49,0.08c0,0,1.209,4.442,0.148,5.052l-3.328-2.909L1004.126,76.369z"></path>
           <path fill="#CC7C1D" d="M1004.13,79.724l4.637,1.776c-0.002-0.556-0.463-1.071-0.893-1.421c-0.432-0.348-0.922-0.66-1.18-1.147 c-0.143-0.271-0.203-0.569-0.313-0.852c-0.355-0.928-1.268-1.616-2.256-1.712L1004.13,79.724z"></path>
        </g>
        <path fill="#412C3D" d="M900.442,107.049c6.121,1.596,10.129,1.077,13.74-0.06c1.682-5.396,4.291-10.546,7.707-15.363 C907.19,100.95,908.767,102.668,900.442,107.049z"></path>
        <path fill="#412C3D" d="M971.722,93.347c-0.021,0.008-0.041,0.016-0.064,0.022c0.025-0.005,0.049-0.01,0.072-0.015 C971.728,93.353,971.724,93.35,971.722,93.347z"></path>
        <path fill="#261818" d="M1007.224,115.069c-0.334-1.924-0.598-3.582-0.832-5.071c-3.695-0.715-7.213-1.607-10.533-2.649 c-5.234,3.133-15.441,8.465-22.852,7.832c-2.143-0.846,1.414-4.217,0.314-5.883c-3.668,0.383-10.453,0.938-11.189-0.614 c-1.756-3.693,1.863-8.866,0.941-11.904c-5.479,2.439-10.631,5.271-15.372,8.465c-1.605,2.088-2.326,3.54-1.424,5.796 c6.043-1.511,5.54-1.008,9.065-2.015c-1.008,3.022-1.512,3.022,0,7.556c4.279,1.01,6.547-2.518,6.547-2.518 c2.016,2.014,0,5.539,0,10.072c5.541,0,5.541,1.008,7.557,0c-1.008,4.027,1.008,4.027,2.52,7.053 c2.016-4.031,3.525-2.52,7.053-6.045c-1.008,6.547,2.518,6.045,3.02,10.576c4.277-3.85,5.285-5.162,6.109-8.555 c-0.986,5.758,1.594,7.08,2.957,12.08c2.016-3.525,3.523-3.525,4.027-8.059c0.506,2.518,2.006,3.963,2.521,3.02 c1.51-5.035,1.672-4.09,2.014-3.02c-1.512,6.547,1.008,8.059,2.521,13.598c3.523-6.043,2.518-9.064,2.518-9.566 c1.008,7.555,7.557,4.027,14.104,16.621C1020.824,144.785,1010.751,132.698,1007.224,115.069z"></path>
        <path fill="#412C3D" d="M962.132,108.682c0.736,1.552,7.521,0.997,11.188,0.614c1.102,1.666-2.455,5.036-0.314,5.882 c7.412,0.635,17.617-4.698,22.854-7.831c-10.551-3.316-19.008-8.188-24.129-13.991c-0.025,0.005-0.049,0.01-0.072,0.015 c-2.945,1.026-5.805,2.169-8.586,3.407C963.996,99.816,960.376,104.989,962.132,108.682z"></path>
        <path opacity="0.86" fill="#FFFFFF" enable-background="new    " d="M962.132,108.682c0.736,1.552,7.521,0.997,11.188,0.614 c1.102,1.666-2.455,5.036-0.314,5.882c7.412,0.635,17.617-4.698,22.854-7.831c-10.551-3.316-19.008-8.188-24.129-13.991 c-0.025,0.005-0.049,0.01-0.072,0.015c-2.945,1.026-5.805,2.169-8.586,3.407C963.996,99.816,960.376,104.989,962.132,108.682z"></path>
     </g>
     <g>
        <path fill="#D85D17" d="M830.728,167.484c-12.088-15.111-10.073-13.098-14.606-26.695c-7.052-13.096-12.089-30.725-19.644-37.775 c-9.065-6.044-9.57-8.563-19.141-13.096c-1.679-2.356-3.691-4.029-6.045-5.036c5.407-0.9,9.722-2.487,12.981-4.728 c0.13,0.039,0.244,0.017,0.337-0.084c0.127-0.138,0.271-0.292,0.422-0.452c0.122-0.092,0.246-0.183,0.364-0.278 c0.018-0.044,0.031-0.099,0.046-0.149c1.582-1.63,3.938-3.848,5.057-4.234c1.18-0.406,3.541-1.615,4.335-2.173 c0,0,3.398-0.858,3.427-2.82c0.379-0.114,0.706-0.173,0.786-0.128l0.206,0.115c0.775,0.303,3.126-0.107,4.492-2.473 c0.194-0.334,0.558-1.292,0.7-1.673c0.052-0.136-2.268,0.079-2.223-0.06c0.064-0.213,2.292-0.189,2.34-0.414 c0.104-0.497,0.173-1.577,0.173-2.116c0.001-0.137-2.083,0.735-2.089,0.597c-0.011-0.166,2.047-0.787,2.027-0.958 c-0.055-0.462-0.329-1.423-0.474-1.897c-0.024-0.07-1.787,1.141-1.813,1.068c-0.054-0.156,1.802-1.111,1.737-1.269 c-0.181-0.446-0.627-1.287-0.9-1.73c-0.064-0.104-0.985,1.087-1.057,0.984c-0.087-0.128,0.99-1.03,0.895-1.158 c-0.367-0.495-1.229-1.463-1.739-1.939c-0.12-0.117-0.478,1.569-0.604,1.477c-0.077-0.061,0.487-1.51,0.409-1.562 c-0.423-0.285-1.201-0.702-1.82-0.743c-0.146-0.009-0.12,1.224-0.261,1.194c-0.093-0.021,0.072-1.259-0.021-1.271 c-0.438-0.067-1.116-0.134-1.569-0.019c-0.063,0.015-0.146,1.422-0.206,1.426c-0.12,0.01,0.082-1.435-0.036-1.418 c-1.261,0.153-2.188,0.573-2.188,0.573s-2.077,2.613-2.54,3.435c-0.458,0.82-3.844-0.187-5.885,1.329 c-3.084,2.287-3.688,2.759-5.644,3.332c-1.168,0.344-1.976,0.611-2.535,0.813c-0.109-0.015-0.227-0.031-0.333-0.045 c-8.202-1.048-7.927-0.153-15.355,0.312c-15.108-2.521-18.133,2.015-25.185,3.523c-18.133,2.521-16.621,4.533-24.178,8.061 c-17.125,9.064-20.649,9.57-37.774,14.605c3.358,0.327,7.052,0,11.081-1.008c-7.391,2.017-10.577,3.185-9.569,3.525 c15.613-2.521,14.616,2.131,26.19,0c5.541-1.511,5.035-4.533,6.548-6.044c1.008,3.523,0.504,3.523,1.008,6.548 c8.06-1.511,10.577-1.008,15.11-1.008c1.511,2.015-1.846,4.332,0,5.038c2.015-0.682,4.697-1.352,8.059-2.017 c-2.015,2.341-2.854,4.191-2.519,5.541c7.556,1.008,6.044,2.016,12.089,0.504c-5.541,2.016-5.541,2.016-8.062,5.037 c8.062,1.51,7.052,0.504,12.089,1.006c-2.015,2.018-1.512,4.029-0.504,5.541c3.022-1.512,4.801-2.266,6.044-1.512 c-1.511,1.734-2.519,3.527-1.007,4.533c5.036-1.006,6.245-2.658,7.555-1.006c-1.511,4.027,0,5.539,0.506,11.08 c2.519,0,5.035-1.008,7.555-2.016c0.504,4.029-1.511,4.029-1.511,8.061c3.021,1.51,6.548-1.512,8.563-0.504 c-3.524,2.014-3.524,3.02-4.028,4.531c3.524,1.512,3.021,1.01,7.053,0c-2.687,2.016-3.526,3.854-2.521,5.539 c2.687-1.686,4.195-1.686,4.533,0c-1.008,3.023,0,3.527,0.504,7.559c5.036-2.521,5.036,1.006,10.577,2.518 c3.007,1.646,3.225,5.311,5.54,7.051c3.878,2.906,8.48,4.154,9.418,4.455c-0.877-0.652-4.244-5.428-2.369-4.957 c1.678,2.016,3.863,4.189,6.549,6.547c0-4.027-0.339-6.891-1.009-8.563c4.533,7.051,6.044,6.045,14.104,11.584 c0.669-2.898,0.15-5.006-1.026-6.895C825.705,166.138,826.885,166.084,830.728,167.484z M788.75,65.365 c0.781-1.391,2.539-1.884,3.927-1.104s1.882,2.538,1.103,3.926c-0.779,1.39-2.538,1.884-3.928,1.104 C788.462,68.51,787.972,66.754,788.75,65.365z"></path>
        <g>
           <path fill="#F9D297" d="M790.967,69.751c-1.75,0-3.174-1.424-3.174-3.174c0-1.751,1.424-3.175,3.174-3.175 s3.174,1.424,3.174,3.175C794.141,68.327,792.716,69.751,790.967,69.751"></path>
           <path fill="#272425" d="M793.265,66.577c0,1.269-1.029,2.297-2.299,2.297s-2.3-1.028-2.3-2.297c0-1.271,1.03-2.3,2.3-2.3 C792.235,64.279,793.265,65.308,793.265,66.577"></path>
           <path fill="#FFFFFF" d="M792.098,66.048c-0.252,0-0.456,0.203-0.456,0.456c0,0.251,0.204,0.457,0.456,0.457 s0.456-0.206,0.456-0.457C792.554,66.251,792.35,66.048,792.098,66.048"></path>
        </g>
        <g>
           <path fill="#E8A02F" d="M794.141,69.751l4.275,0.076c0,0,1.15,4.229,0.142,4.81l-3.169-2.771L794.141,69.751z"></path>
           <path fill="#CC7C1D" d="M794.144,72.946l4.415,1.691c-0.001-0.528-0.44-1.021-0.85-1.353c-0.411-0.331-0.877-0.63-1.125-1.095 c-0.134-0.256-0.191-0.542-0.295-0.81c-0.341-0.884-1.207-1.54-2.148-1.63L794.144,72.946z"></path>
        </g>
        <g>
           <path fill="#D85D17" d="M805.876,164.87c0.064,0.048,0.118,0.078,0.152,0.078C806.101,164.948,806.035,164.921,805.876,164.87z"></path>
        </g>
        <path fill="#412C3D" d="M729.461,70.633c-9.811,1.969-9.922,3.843-16.112,6.731c-17.125,9.065-20.65,9.57-37.775,14.606 c3.359,0.327,7.052,0,11.081-1.008c-7.39,2.016-10.577,3.184-9.569,3.524c15.613-2.52,14.616,2.131,26.19,0 c0.707-0.192,1.313-0.41,1.839-0.646C711.174,84.954,719.48,77.077,729.461,70.633z"></path>
        <path fill="none" d="M822.244,162.398c-1.479-2.376-4.004-4.401-6.531-7.209C818.642,158.582,820.673,160.839,822.244,162.398z"></path>
        <path fill="none" d="M750.718,89.222c0.353-0.05,0.703-0.101,1.057-0.148C751.466,88.983,751.107,89.064,750.718,89.222z"></path>
        <path fill="#412C3D" d="M815.619,155.345c2.527,2.808,5.051,4.833,6.531,7.209c3.557,3.535,4.734,3.48,8.578,4.88 c-12.086-15.11-10.071-13.098-14.605-26.694c-7.052-13.096-12.089-30.725-19.645-37.775c-1.448-0.967-2.662-1.836-3.746-2.645 c-2.068,1.597-4.386,2.741-6.86,3.346c-4.658,2.313-17.141,7.838-25.323,6.271c-2.043-1.063,1.844-4.047,0.922-5.817 c-3.688,0-10.492-0.15-11.063-1.771c-1.503-4.247,3.688-9.609,1.844-12.646c-0.16-0.262-0.352-0.409-0.57-0.474 c-0.353,0.049-0.704,0.099-1.056,0.147c-1.448,0.59-3.307,2.286-4.515,0.688c-6.88,1.122-13.54,2.533-19.91,4.229 c0.855,1.912-1.958,3.979-0.235,4.639c2.016-0.682,4.698-1.352,8.06-2.017c-2.016,2.343-2.854,4.19-2.52,5.54 c7.556,1.009,6.044,2.017,12.089,0.504c-5.541,2.017-5.541,2.017-8.061,5.037c8.061,1.512,7.052,0.504,12.089,1.008 c-2.015,2.016-1.512,4.028-0.504,5.54c3.021-1.512,4.801-2.267,6.044-1.512c-1.511,1.733-2.52,3.526-1.007,4.533 c5.036-1.007,6.245-2.659,7.555-1.007c-1.511,4.028,0,5.54,0.505,11.081c2.52,0,5.036-1.008,7.555-2.017 c0.505,4.029-1.511,4.029-1.511,8.061c3.021,1.511,6.548-1.511,8.563-0.504c-3.525,2.015-3.525,3.021-4.029,4.531 c3.525,1.513,3.021,1.01,7.053,0c-2.686,2.017-3.525,3.854-2.52,5.54c2.686-1.687,4.195-1.687,4.533,0 c-1.008,3.022,0,3.526,0.504,7.558c5.036-2.521,5.036,1.007,10.577,2.519c3.007,1.646,3.224,5.311,5.54,7.051 c3.878,2.905,8.479,4.154,9.418,4.455c-0.876-0.652-4.244-5.428-2.368-4.958c1.678,2.017,3.862,4.19,6.549,6.549 c0-4.028-0.339-6.892-1.009-8.563c4.533,7.051,6.044,6.044,14.104,11.584c0.668-2.897,0.15-5.007-1.025-6.895 C820.58,160.994,818.549,158.739,815.619,155.345z"></path>
        <path fill="#412C3D" d="M762.709,87.976c-3.753,0.329-7.448,0.755-11.091,1.254c0.218,0.063,0.41,0.212,0.57,0.474 c1.845,3.035-3.348,8.397-1.845,12.646c0.572,1.62,7.378,1.771,11.064,1.771c0.922,1.771-2.965,4.754-0.922,5.817 c8.182,1.565,20.665-3.96,25.323-6.271c-1.29,0.315-2.62,0.492-3.985,0.492C773.115,104.157,765.679,97.443,762.709,87.976z"></path>
        <path opacity="0.86" fill="#FFFFFF" enable-background="new    " d="M762.709,87.976c-3.753,0.329-7.448,0.755-11.091,1.254 c0.218,0.063,0.41,0.212,0.57,0.474c1.845,3.035-3.348,8.397-1.845,12.646c0.572,1.62,7.378,1.771,11.064,1.771 c0.922,1.771-2.965,4.754-0.922,5.817c8.182,1.565,20.665-3.96,25.323-6.271c-1.29,0.315-2.62,0.492-3.985,0.492 C773.115,104.157,765.679,97.443,762.709,87.976z"></path>
     </g>
     <g>
        <g>
           <path fill="#D85D17" d="M187.5,96.709c-0.012-0.216,2.64-1.018,2.617-1.235c-0.071-0.596-0.424-1.835-0.612-2.45 c-0.031-0.09-2.304,1.472-2.335,1.379c-0.07-0.204,2.323-1.435,2.241-1.636c-0.234-0.575-0.81-1.66-1.163-2.23 c-0.084-0.134-1.271,1.401-1.361,1.271c-0.112-0.165,1.277-1.329,1.154-1.493c-0.477-0.638-1.587-1.887-2.245-2.503 c-0.154-0.151-0.614,2.026-0.778,1.904c-0.099-0.078,0.628-1.947,0.528-2.016c-0.546-0.366-1.549-0.904-2.348-0.958 c-0.19-0.012-0.157,1.578-0.337,1.541c-0.12-0.023,0.093-1.622-0.027-1.64c-0.562-0.087-1.44-0.173-2.024-0.024 c-0.077,0.021-0.19,1.834-0.266,1.841c-0.155,0.013,0.105-1.85-0.046-1.829c-1.626,0.197-2.824,0.739-2.824,0.739 s-2.679,3.371-3.275,4.43c-0.591,1.058-4.957-0.239-7.588,1.714c-3.978,2.949-4.758,3.558-7.277,4.296 c-2.802,0.826-4.008,1.313-4.493,1.539c-4.109-3.611-6.775-1.867-14.406-1.867c-14.354,2.52-17.608,6.472-18.132,6.548 c-18.414,2.543-27.702,7.557-27.702,7.557c-15.448,1.34-26.529,3.354-33.243,6.044c9.736-2.269,18.132-2.269,25.184,0 c1.511,4.027,8.059,4.531,10.577,4.531c-2.352,3.354-10.074,7.22-23.169,11.585c10.744,1.009,19.644,0.672,26.695-1.008 c6.336-1.509,8.152-5.904,8.591-8.327c0.241,3.056,2.021,1.759,2.49,8.327c7.052-4.027,7.052-10.577,8.563-9.064 c1.511,1.512-1.007,7.052,2.015,6.045c2.015-0.675,3.274-2.017,3.778-4.029c8.9,0.669,17.377,0,25.436-2.016 c4.927,0,11.712-4.354,14.014-7.553c2.019-2.047,4.76-4.575,6.109-5.041c1.522-0.523,4.566-2.084,5.591-2.804l1.148-0.2 c0,0,4.909-1.769,3.269-3.436c0.489-0.146,0.91-0.223,1.013-0.164l0.265,0.147c1,0.391,4.032-0.14,5.793-3.188 c0.251-0.431,0.72-1.667,0.902-2.158c0.067-0.176-2.921,0.104-2.864-0.076c0.083-0.273,2.956-0.242,3.015-0.532 c0.137-0.643,0.224-2.033,0.223-2.729C190.197,95.762,187.509,96.886,187.5,96.709z"></path>
        </g>
        <path fill="#F9D297" d="M179.661,103.402c-2.022,0-3.668-1.646-3.668-3.667c0-2.022,1.646-3.668,3.668-3.668 c2.021,0,3.667,1.646,3.667,3.668C183.329,101.757,181.683,103.402,179.661,103.402"></path>
        <path fill="#272425" d="M182.317,99.735c0,1.466-1.189,2.655-2.656,2.655c-1.466,0-2.656-1.189-2.656-2.655 c0-1.467,1.19-2.656,2.656-2.656C181.128,97.079,182.317,98.268,182.317,99.735"></path>
        <g>
           <path fill="#E8A02F" d="M180.464,104.882l5.071,0.091c0,0,1.365,5.017,0.168,5.703l-3.759-3.285L180.464,104.882z"></path>
           <path fill="#CC7C1D" d="M180.468,108.67l5.235,2.006c-0.001-0.626-0.521-1.211-1.007-1.604c-0.487-0.393-1.04-0.746-1.333-1.298 c-0.159-0.303-0.229-0.643-0.351-0.96c-0.403-1.048-1.431-1.826-2.548-1.933L180.468,108.67z"></path>
        </g>
        <path fill="#221616" d="M140.523,97.499c-14.354,2.519-17.608,6.472-18.132,6.548c-6.577,0.908-11.967,2.131-16.208,3.328 c-7.006,5.992-3.94,13.002-7.022,13.125l-1.953,0.821l-1.85,0.777c0.723,0.061,1.363,0.079,1.85,0.079 c-2.352,3.354-10.074,7.22-23.169,11.585c10.744,1.009,19.644,0.671,26.695-1.008c6.336-1.509,8.152-5.905,8.591-8.327 c0.241,3.056,2.021,1.759,2.49,8.327c7.052-4.027,7.052-10.577,8.563-9.064c1.511,1.512-1.007,7.052,2.015,6.045 c2.015-0.676,3.274-2.017,3.778-4.029c1.829,0.138,19.973-5.873,28.735-26.36C150.809,95.764,148.138,97.499,140.523,97.499z"></path>
        <path opacity="0.86" fill="#FFFFFF" enable-background="new    " d="M106.008,107.414c-7.006,5.992-3.94,13.002-7.022,13.125 l-1.953,0.821l-1.85,0.777c0.723,0.061,1.363,0.079,1.85,0.079c-1.397,1.992,0.251,2.36,1.443,6.198 C111.059,118.416,108.974,106.576,106.008,107.414z"></path>
        <path fill="#221616" d="M78.745,113.437c-7.455,1.145-13.257,2.545-17.395,4.202c6.437-1.499,12.274-1.984,17.538-1.502 C78.774,115.252,78.73,114.338,78.745,113.437z"></path>
     </g>
     <path fill="none" d="M324.843-655.342h186.361v256.369H324.843V-655.342z"></path>
  </g>
</svg>
